<svg width="170" height="170" viewBox="0 0 170 170" fill="none" xmlns="http://www.w3.org/2000/svg">
<g clip-path="url(#clip0_2084_219)">
<path d="M163.2 0H6.8C3.04446 0 0 3.04446 0 6.8V163.2C0 166.956 3.04446 170 6.8 170H163.2C166.956 170 170 166.956 170 163.2V6.8C170 3.04446 166.956 0 163.2 0Z" fill="#F5F4EE"/>
<path d="M159.8 5.09998H10.2001C7.38345 5.09998 5.1001 7.38332 5.1001 10.2V159.8C5.1001 162.617 7.38345 164.9 10.2001 164.9H159.8C162.617 164.9 164.9 162.617 164.9 159.8V10.2C164.9 7.38332 162.617 5.09998 159.8 5.09998Z" fill="#0A0B0E"/>
<path d="M117.3 25.5H52.7002V74.8H117.3V25.5Z" fill="#F5F4EE"/>
<path d="M58.6501 31.45C60.0584 31.45 61.2001 30.3083 61.2001 28.9C61.2001 27.4916 60.0584 26.35 58.6501 26.35C57.2418 26.35 56.1001 27.4916 56.1001 28.9C56.1001 30.3083 57.2418 31.45 58.6501 31.45Z" fill="#0A0B0E"/>
<path d="M58.6501 39.1C60.0584 39.1 61.2001 37.9583 61.2001 36.55C61.2001 35.1417 60.0584 34 58.6501 34C57.2418 34 56.1001 35.1417 56.1001 36.55C56.1001 37.9583 57.2418 39.1 58.6501 39.1Z" fill="#0A0B0E"/>
<path d="M58.6501 46.75C60.0584 46.75 61.2001 45.6084 61.2001 44.2C61.2001 42.7917 60.0584 41.65 58.6501 41.65C57.2418 41.65 56.1001 42.7917 56.1001 44.2C56.1001 45.6084 57.2418 46.75 58.6501 46.75Z" fill="#0A0B0E"/>
<path d="M58.6501 54.3999C60.0584 54.3999 61.2001 53.2583 61.2001 51.8499C61.2001 50.4416 60.0584 49.2999 58.6501 49.2999C57.2418 49.2999 56.1001 50.4416 56.1001 51.8499C56.1001 53.2583 57.2418 54.3999 58.6501 54.3999Z" fill="#0A0B0E"/>
<path d="M58.6501 62.05C60.0584 62.05 61.2001 60.9083 61.2001 59.5C61.2001 58.0916 60.0584 56.95 58.6501 56.95C57.2418 56.95 56.1001 58.0916 56.1001 59.5C56.1001 60.9083 57.2418 62.05 58.6501 62.05Z" fill="#0A0B0E"/>
<path d="M58.6501 69.7C60.0584 69.7 61.2001 68.5583 61.2001 67.15C61.2001 65.7416 60.0584 64.6 58.6501 64.6C57.2418 64.6 56.1001 65.7416 56.1001 67.15C56.1001 68.5583 57.2418 69.7 58.6501 69.7Z" fill="#0A0B0E"/>
<path d="M111.35 31.45C112.759 31.45 113.9 30.3083 113.9 28.9C113.9 27.4916 112.759 26.35 111.35 26.35C109.942 26.35 108.8 27.4916 108.8 28.9C108.8 30.3083 109.942 31.45 111.35 31.45Z" fill="#0A0B0E"/>
<path d="M111.35 39.1C112.759 39.1 113.9 37.9583 113.9 36.55C113.9 35.1417 112.759 34 111.35 34C109.942 34 108.8 35.1417 108.8 36.55C108.8 37.9583 109.942 39.1 111.35 39.1Z" fill="#0A0B0E"/>
<path d="M111.35 46.75C112.759 46.75 113.9 45.6084 113.9 44.2C113.9 42.7917 112.759 41.65 111.35 41.65C109.942 41.65 108.8 42.7917 108.8 44.2C108.8 45.6084 109.942 46.75 111.35 46.75Z" fill="#0A0B0E"/>
<path d="M111.35 54.3999C112.759 54.3999 113.9 53.2583 113.9 51.8499C113.9 50.4416 112.759 49.2999 111.35 49.2999C109.942 49.2999 108.8 50.4416 108.8 51.8499C108.8 53.2583 109.942 54.3999 111.35 54.3999Z" fill="#0A0B0E"/>
<path d="M111.35 62.05C112.759 62.05 113.9 60.9083 113.9 59.5C113.9 58.0916 112.759 56.95 111.35 56.95C109.942 56.95 108.8 58.0916 108.8 59.5C108.8 60.9083 109.942 62.05 111.35 62.05Z" fill="#0A0B0E"/>
<path d="M111.35 69.7C112.759 69.7 113.9 68.5583 113.9 67.15C113.9 65.7416 112.759 64.6 111.35 64.6C109.942 64.6 108.8 65.7416 108.8 67.15C108.8 68.5583 109.942 69.7 111.35 69.7Z" fill="#0A0B0E"/>
<path d="M68 30.6H93.5" stroke="#0A0B0E" stroke-width="2" stroke-linecap="round"/>
<path d="M68 39.1H88.4" stroke="#0A0B0E" stroke-width="2" stroke-linecap="round"/>
<path d="M68 51H81.6" stroke="#0A0B0E" stroke-width="2" stroke-linecap="round"/>
<path d="M68 59.5H93.5" stroke="#0A0B0E" stroke-width="2" stroke-linecap="round"/>
<path d="M68 68H85" stroke="#0A0B0E" stroke-width="2" stroke-linecap="round"/>
<path d="M123.25 71.4H46.7502C45.3419 71.4 44.2002 72.5417 44.2002 73.95V75.65C44.2002 77.0584 45.3419 78.2 46.7502 78.2H123.25C124.659 78.2 125.8 77.0584 125.8 75.65V73.95C125.8 72.5417 124.659 71.4 123.25 71.4Z" fill="#0A0B0E" stroke="#F5F4EE" stroke-width="2.5"/>
<path d="M34 85V68C34 57.8 42.5 54.4 54.4 54.4H115.6C127.5 54.4 136 57.8 136 68V85" stroke="#F5F4EE" stroke-width="3"/>
<path d="M31.4502 85H138.55V127.5C138.55 141.1 129.2 147.9 115.6 147.9H54.4002C40.8002 147.9 31.4502 141.1 31.4502 127.5V85Z" fill="#F5F4EE"/>
<path d="M115.6 98.6H54.4C47.8278 98.6 42.5 103.928 42.5 110.5C42.5 117.072 47.8278 122.4 54.4 122.4H115.6C122.172 122.4 127.5 117.072 127.5 110.5C127.5 103.928 122.172 98.6 115.6 98.6Z" fill="#0A0B0E"/>
<path d="M66.3003 108.8C73.1003 115.6 96.9003 115.6 103.7 108.8" stroke="#F5F4EE" stroke-width="2.5" stroke-linecap="round"/>
<path d="M54.4003 112.71C56.0903 112.71 57.4603 111.34 57.4603 109.65C57.4603 107.96 56.0903 106.59 54.4003 106.59C52.7103 106.59 51.3403 107.96 51.3403 109.65C51.3403 111.34 52.7103 112.71 54.4003 112.71Z" fill="#F5F4EE"/>
<path d="M115.6 112.71C117.29 112.71 118.66 111.34 118.66 109.65C118.66 107.96 117.29 106.59 115.6 106.59C113.91 106.59 112.54 107.96 112.54 109.65C112.54 111.34 113.91 112.71 115.6 112.71Z" fill="#F5F4EE"/>
</g>
<defs>
<clipPath id="clip0_2084_219">
<rect width="170" height="170" fill="white"/>
</clipPath>
</defs>
</svg>
